<svg xmlns="http://www.w3.org/2000/svg" viewBox="0 0 128 128" fill="none">
  <defs>
    <linearGradient id="g1" x1="16" y1="16" x2="112" y2="112" gradientUnits="userSpaceOnUse">
      <stop stop-color="#7C6CFF"/>
      <stop offset="0.52" stop-color="#4F8DFF"/>
      <stop offset="1" stop-color="#22C1A8"/>
    </linearGradient>
    <linearGradient id="g2" x1="32" y1="30" x2="98" y2="102" gradientUnits="userSpaceOnUse">
      <stop stop-color="#FFFFFF" stop-opacity="0.96"/>
      <stop offset="1" stop-color="#C7D2FE" stop-opacity="0.92"/>
    </linearGradient>
  </defs>
  <rect x="10" y="10" width="108" height="108" rx="30" fill="url(#g1)"/>
  <path d="M40 44C40 37.373 45.373 32 52 32H76C88.15 32 98 41.85 98 54C98 66.15 88.15 76 76 76H62L48 90V76C41.373 76 36 70.627 36 64V48C36 45.791 37.791 44 40 44Z" fill="url(#g2)" opacity="0.95"/>
  <circle cx="55" cy="55" r="4.5" fill="#0B0F17"/>
  <circle cx="73" cy="55" r="4.5" fill="#0B0F17"/>
  <path d="M55 68C58.5 70.5 62.5 71.5 67 71.5C71.5 71.5 75.5 70.5 79 68" stroke="#0B0F17" stroke-width="4" stroke-linecap="round"/>
</svg>
